<mxfile host="app.diagrams.net" agent="Mozilla/5.0 (Windows NT 10.0; Win64; x64) AppleWebKit/537.36 (KHTML, like Gecko) Chrome/131.0.0.0 Safari/537.36" version="25.0.1">
  <diagram name="Page-1" id="efa7a0a1-bf9b-a30e-e6df-94a7791c09e9">
    <mxGraphModel dx="2100" dy="1130" grid="1" gridSize="10" guides="1" tooltips="1" connect="1" arrows="1" fold="1" page="1" pageScale="1" pageWidth="826" pageHeight="1169" background="none" math="0" shadow="0">
      <root>
        <mxCell id="0" />
        <mxCell id="1" parent="0" />

        <!-- 表连接线 -->
        <mxCell id="90" value="" style="endArrow=open;endSize=12;startArrow=diamondThin;startSize=14;startFill=0;edgeStyle=orthogonalEdgeStyle" parent="1" source="" target="" edge="1">
          <mxGeometry x="20" y="40" as="geometry">
            <mxPoint x="20" y="40" as="sourcePoint" />
            <mxPoint x="80" y="40" as="targetPoint" />
          </mxGeometry>
        </mxCell>

        <!-- 表实体 -->
        <mxCell id="3a7087a4393e408ba4c6dc8b8202fafd" value="&lt;p style=&quot;margin: 0px; margin-top: 4px; text-align: center; &quot;&gt;&lt;strong&gt;XXL_JOB_GROUP&lt;/strong&gt;&lt;/p&gt; &lt;hr/&gt; &lt;table style=&quot;width:100%;font-size:1em;&quot; cellpadding=&quot;2&quot; cellspacing=&quot;0&quot;&gt; &lt;tr&gt; &lt;td&gt; ID &lt;/td&gt; &lt;td&gt; BIGINT ( 64 ) &lt;/td&gt; &lt;td&gt; pk &lt;/td&gt; &lt;/tr&gt; &lt;tr&gt; &lt;td&gt; APP_NAME &lt;/td&gt; &lt;td&gt; VARCHAR ( 64 ) &lt;/td&gt; &lt;td&gt; &lt;/td&gt; &lt;/tr&gt; &lt;tr&gt; &lt;td&gt; TITLE &lt;/td&gt; &lt;td&gt; VARCHAR ( 64 ) &lt;/td&gt; &lt;td&gt; &lt;/td&gt; &lt;/tr&gt; &lt;tr&gt; &lt;td&gt; ADDRESS_TYPE &lt;/td&gt; &lt;td&gt; INTEGER ( 32 ) &lt;/td&gt; &lt;td&gt; &lt;/td&gt; &lt;/tr&gt; &lt;tr&gt; &lt;td&gt; ADDRESS_LIST &lt;/td&gt; &lt;td&gt; VARCHAR ( 1000000000 ) &lt;/td&gt; &lt;td&gt; &lt;/td&gt; &lt;/tr&gt; &lt;tr&gt; &lt;td&gt; UPDATE_TIME &lt;/td&gt; &lt;td&gt; TIMESTAMP ( 26 ,6 ) &lt;/td&gt; &lt;td&gt; &lt;/td&gt; &lt;/tr&gt; &lt;/table&gt; &lt;hr/&gt; &lt;p style=&quot;margin: 0px; margin-top: 4px; &quot;&gt;&lt;strong&gt;任务组&lt;/strong&gt;&lt;/p&gt;"
           style="verticalAlign=top;align=left;overflow=fill;fontSize=12;fontFamily=Helvetica;html=1;strokeColor=#003366;shadow=1;fillColor=#D4E1F5;fontColor=#003366" parent="1" vertex="1">
          <mxGeometry x="10" y="100" width="300" height="200" as="geometry" />
        </mxCell>
        <mxCell id="9af77a8e31454c2fafafd35e6d44ec8a" value="&lt;p style=&quot;margin: 0px; margin-top: 4px; text-align: center; &quot;&gt;&lt;strong&gt;XXL_JOB_INFO&lt;/strong&gt;&lt;/p&gt; &lt;hr/&gt; &lt;table style=&quot;width:100%;font-size:1em;&quot; cellpadding=&quot;2&quot; cellspacing=&quot;0&quot;&gt; &lt;tr&gt; &lt;td&gt; ID &lt;/td&gt; &lt;td&gt; BIGINT ( 64 ) &lt;/td&gt; &lt;td&gt; pk &lt;/td&gt; &lt;/tr&gt; &lt;tr&gt; &lt;td&gt; JOB_GROUP &lt;/td&gt; &lt;td&gt; INTEGER ( 32 ) &lt;/td&gt; &lt;td&gt; &lt;/td&gt; &lt;/tr&gt; &lt;tr&gt; &lt;td&gt; JOB_DESC &lt;/td&gt; &lt;td&gt; VARCHAR ( 255 ) &lt;/td&gt; &lt;td&gt; &lt;/td&gt; &lt;/tr&gt; &lt;tr&gt; &lt;td&gt; ADD_TIME &lt;/td&gt; &lt;td&gt; TIMESTAMP ( 26 ,6 ) &lt;/td&gt; &lt;td&gt; &lt;/td&gt; &lt;/tr&gt; &lt;tr&gt; &lt;td&gt; UPDATE_TIME &lt;/td&gt; &lt;td&gt; TIMESTAMP ( 26 ,6 ) &lt;/td&gt; &lt;td&gt; &lt;/td&gt; &lt;/tr&gt; &lt;tr&gt; &lt;td&gt; AUTHOR &lt;/td&gt; &lt;td&gt; VARCHAR ( 64 ) &lt;/td&gt; &lt;td&gt; &lt;/td&gt; &lt;/tr&gt; &lt;tr&gt; &lt;td&gt; ALARM_EMAIL &lt;/td&gt; &lt;td&gt; VARCHAR ( 255 ) &lt;/td&gt; &lt;td&gt; &lt;/td&gt; &lt;/tr&gt; &lt;tr&gt; &lt;td&gt; SCHEDULE_TYPE &lt;/td&gt; &lt;td&gt; VARCHAR ( 50 ) &lt;/td&gt; &lt;td&gt; &lt;/td&gt; &lt;/tr&gt; &lt;tr&gt; &lt;td&gt; SCHEDULE_CONF &lt;/td&gt; &lt;td&gt; VARCHAR ( 128 ) &lt;/td&gt; &lt;td&gt; &lt;/td&gt; &lt;/tr&gt; &lt;tr&gt; &lt;td&gt; MISFIRE_STRATEGY &lt;/td&gt; &lt;td&gt; VARCHAR ( 50 ) &lt;/td&gt; &lt;td&gt; &lt;/td&gt; &lt;/tr&gt; &lt;tr&gt; &lt;td&gt; EXECUTOR_ROUTE_STRATEGY &lt;/td&gt; &lt;td&gt; VARCHAR ( 50 ) &lt;/td&gt; &lt;td&gt; &lt;/td&gt; &lt;/tr&gt; &lt;tr&gt; &lt;td&gt; EXECUTOR_HANDLER &lt;/td&gt; &lt;td&gt; VARCHAR ( 255 ) &lt;/td&gt; &lt;td&gt; &lt;/td&gt; &lt;/tr&gt; &lt;tr&gt; &lt;td&gt; EXECUTOR_PARAM &lt;/td&gt; &lt;td&gt; VARCHAR ( 512 ) &lt;/td&gt; &lt;td&gt; &lt;/td&gt; &lt;/tr&gt; &lt;tr&gt; &lt;td&gt; EXECUTOR_BLOCK_STRATEGY &lt;/td&gt; &lt;td&gt; VARCHAR ( 50 ) &lt;/td&gt; &lt;td&gt; &lt;/td&gt; &lt;/tr&gt; &lt;tr&gt; &lt;td&gt; EXECUTOR_TIMEOUT &lt;/td&gt; &lt;td&gt; INTEGER ( 32 ) &lt;/td&gt; &lt;td&gt; &lt;/td&gt; &lt;/tr&gt; &lt;tr&gt; &lt;td&gt; EXECUTOR_FAIL_RETRY_COUNT &lt;/td&gt; &lt;td&gt; INTEGER ( 32 ) &lt;/td&gt; &lt;td&gt; &lt;/td&gt; &lt;/tr&gt; &lt;tr&gt; &lt;td&gt; GLUE_TYPE &lt;/td&gt; &lt;td&gt; VARCHAR ( 50 ) &lt;/td&gt; &lt;td&gt; &lt;/td&gt; &lt;/tr&gt; &lt;tr&gt; &lt;td&gt; GLUE_SOURCE &lt;/td&gt; &lt;td&gt; VARCHAR ( 1000000000 ) &lt;/td&gt; &lt;td&gt; &lt;/td&gt; &lt;/tr&gt; &lt;tr&gt; &lt;td&gt; GLUE_REMARK &lt;/td&gt; &lt;td&gt; VARCHAR ( 128 ) &lt;/td&gt; &lt;td&gt; &lt;/td&gt; &lt;/tr&gt; &lt;tr&gt; &lt;td&gt; GLUE_UPDATETIME &lt;/td&gt; &lt;td&gt; TIMESTAMP ( 26 ,6 ) &lt;/td&gt; &lt;td&gt; &lt;/td&gt; &lt;/tr&gt; &lt;tr&gt; &lt;td&gt; CHILD_JOBID &lt;/td&gt; &lt;td&gt; VARCHAR ( 255 ) &lt;/td&gt; &lt;td&gt; &lt;/td&gt; &lt;/tr&gt; &lt;tr&gt; &lt;td&gt; TRIGGER_STATUS &lt;/td&gt; &lt;td&gt; INTEGER ( 32 ) &lt;/td&gt; &lt;td&gt; &lt;/td&gt; &lt;/tr&gt; &lt;tr&gt; &lt;td&gt; TRIGGER_LAST_TIME &lt;/td&gt; &lt;td&gt; BIGINT ( 64 ) &lt;/td&gt; &lt;td&gt; &lt;/td&gt; &lt;/tr&gt; &lt;tr&gt; &lt;td&gt; TRIGGER_NEXT_TIME &lt;/td&gt; &lt;td&gt; BIGINT ( 64 ) &lt;/td&gt; &lt;td&gt; &lt;/td&gt; &lt;/tr&gt; &lt;/table&gt; &lt;hr/&gt; &lt;p style=&quot;margin: 0px; margin-top: 4px; &quot;&gt;&lt;strong&gt;XXL任务信息&lt;/strong&gt;&lt;/p&gt;"
           style="verticalAlign=top;align=left;overflow=fill;fontSize=12;fontFamily=Helvetica;html=1;strokeColor=#003366;shadow=1;fillColor=#D4E1F5;fontColor=#003366" parent="1" vertex="1">
          <mxGeometry x="330" y="100" width="300" height="650" as="geometry" />
        </mxCell>
        <mxCell id="7b6c6802fdda41158bf136cb55198370" value="&lt;p style=&quot;margin: 0px; margin-top: 4px; text-align: center; &quot;&gt;&lt;strong&gt;XXL_JOB_LOCK&lt;/strong&gt;&lt;/p&gt; &lt;hr/&gt; &lt;table style=&quot;width:100%;font-size:1em;&quot; cellpadding=&quot;2&quot; cellspacing=&quot;0&quot;&gt; &lt;tr&gt; &lt;td&gt; LOCK_NAME &lt;/td&gt; &lt;td&gt; VARCHAR ( 50 ) &lt;/td&gt; &lt;td&gt; pk &lt;/td&gt; &lt;/tr&gt; &lt;/table&gt; &lt;hr/&gt; &lt;p style=&quot;margin: 0px; margin-top: 4px; &quot;&gt;&lt;strong&gt;XXL任务锁&lt;/strong&gt;&lt;/p&gt;"
           style="verticalAlign=top;align=left;overflow=fill;fontSize=12;fontFamily=Helvetica;html=1;strokeColor=#003366;shadow=1;fillColor=#D4E1F5;fontColor=#003366" parent="1" vertex="1">
          <mxGeometry x="650" y="100" width="300" height="75" as="geometry" />
        </mxCell>
        <mxCell id="d77f244049d44a3691ea6e3767abdeb8" value="&lt;p style=&quot;margin: 0px; margin-top: 4px; text-align: center; &quot;&gt;&lt;strong&gt;XXL_JOB_LOG&lt;/strong&gt;&lt;/p&gt; &lt;hr/&gt; &lt;table style=&quot;width:100%;font-size:1em;&quot; cellpadding=&quot;2&quot; cellspacing=&quot;0&quot;&gt; &lt;tr&gt; &lt;td&gt; ID &lt;/td&gt; &lt;td&gt; BIGINT ( 64 ) &lt;/td&gt; &lt;td&gt; pk &lt;/td&gt; &lt;/tr&gt; &lt;tr&gt; &lt;td&gt; JOB_GROUP &lt;/td&gt; &lt;td&gt; INTEGER ( 32 ) &lt;/td&gt; &lt;td&gt; &lt;/td&gt; &lt;/tr&gt; &lt;tr&gt; &lt;td&gt; JOB_ID &lt;/td&gt; &lt;td&gt; INTEGER ( 32 ) &lt;/td&gt; &lt;td&gt; &lt;/td&gt; &lt;/tr&gt; &lt;tr&gt; &lt;td&gt; EXECUTOR_ADDRESS &lt;/td&gt; &lt;td&gt; VARCHAR ( 255 ) &lt;/td&gt; &lt;td&gt; &lt;/td&gt; &lt;/tr&gt; &lt;tr&gt; &lt;td&gt; EXECUTOR_HANDLER &lt;/td&gt; &lt;td&gt; VARCHAR ( 255 ) &lt;/td&gt; &lt;td&gt; &lt;/td&gt; &lt;/tr&gt; &lt;tr&gt; &lt;td&gt; EXECUTOR_PARAM &lt;/td&gt; &lt;td&gt; VARCHAR ( 512 ) &lt;/td&gt; &lt;td&gt; &lt;/td&gt; &lt;/tr&gt; &lt;tr&gt; &lt;td&gt; EXECUTOR_SHARDING_PARAM &lt;/td&gt; &lt;td&gt; VARCHAR ( 20 ) &lt;/td&gt; &lt;td&gt; &lt;/td&gt; &lt;/tr&gt; &lt;tr&gt; &lt;td&gt; EXECUTOR_FAIL_RETRY_COUNT &lt;/td&gt; &lt;td&gt; INTEGER ( 32 ) &lt;/td&gt; &lt;td&gt; &lt;/td&gt; &lt;/tr&gt; &lt;tr&gt; &lt;td&gt; TRIGGER_TIME &lt;/td&gt; &lt;td&gt; TIMESTAMP ( 26 ,6 ) &lt;/td&gt; &lt;td&gt; &lt;/td&gt; &lt;/tr&gt; &lt;tr&gt; &lt;td&gt; TRIGGER_CODE &lt;/td&gt; &lt;td&gt; INTEGER ( 32 ) &lt;/td&gt; &lt;td&gt; &lt;/td&gt; &lt;/tr&gt; &lt;tr&gt; &lt;td&gt; TRIGGER_MSG &lt;/td&gt; &lt;td&gt; VARCHAR ( 1000000000 ) &lt;/td&gt; &lt;td&gt; &lt;/td&gt; &lt;/tr&gt; &lt;tr&gt; &lt;td&gt; HANDLE_TIME &lt;/td&gt; &lt;td&gt; TIMESTAMP ( 26 ,6 ) &lt;/td&gt; &lt;td&gt; &lt;/td&gt; &lt;/tr&gt; &lt;tr&gt; &lt;td&gt; HANDLE_CODE &lt;/td&gt; &lt;td&gt; INTEGER ( 32 ) &lt;/td&gt; &lt;td&gt; &lt;/td&gt; &lt;/tr&gt; &lt;tr&gt; &lt;td&gt; HANDLE_MSG &lt;/td&gt; &lt;td&gt; VARCHAR ( 1000000000 ) &lt;/td&gt; &lt;td&gt; &lt;/td&gt; &lt;/tr&gt; &lt;tr&gt; &lt;td&gt; ALARM_STATUS &lt;/td&gt; &lt;td&gt; INTEGER ( 32 ) &lt;/td&gt; &lt;td&gt; &lt;/td&gt; &lt;/tr&gt; &lt;/table&gt; &lt;hr/&gt; &lt;p style=&quot;margin: 0px; margin-top: 4px; &quot;&gt;&lt;strong&gt;XXL任务日志&lt;/strong&gt;&lt;/p&gt;"
           style="verticalAlign=top;align=left;overflow=fill;fontSize=12;fontFamily=Helvetica;html=1;strokeColor=#003366;shadow=1;fillColor=#D4E1F5;fontColor=#003366" parent="1" vertex="1">
          <mxGeometry x="970" y="100" width="300" height="425" as="geometry" />
        </mxCell>
        <mxCell id="b4e32c4deb9c4cacb842d8d60e53038f" value="&lt;p style=&quot;margin: 0px; margin-top: 4px; text-align: center; &quot;&gt;&lt;strong&gt;XXL_JOB_LOG_REPORT&lt;/strong&gt;&lt;/p&gt; &lt;hr/&gt; &lt;table style=&quot;width:100%;font-size:1em;&quot; cellpadding=&quot;2&quot; cellspacing=&quot;0&quot;&gt; &lt;tr&gt; &lt;td&gt; ID &lt;/td&gt; &lt;td&gt; BIGINT ( 64 ) &lt;/td&gt; &lt;td&gt; pk &lt;/td&gt; &lt;/tr&gt; &lt;tr&gt; &lt;td&gt; TRIGGER_DAY &lt;/td&gt; &lt;td&gt; TIMESTAMP ( 26 ,6 ) &lt;/td&gt; &lt;td&gt; &lt;/td&gt; &lt;/tr&gt; &lt;tr&gt; &lt;td&gt; RUNNING_COUNT &lt;/td&gt; &lt;td&gt; INTEGER ( 32 ) &lt;/td&gt; &lt;td&gt; &lt;/td&gt; &lt;/tr&gt; &lt;tr&gt; &lt;td&gt; SUC_COUNT &lt;/td&gt; &lt;td&gt; INTEGER ( 32 ) &lt;/td&gt; &lt;td&gt; &lt;/td&gt; &lt;/tr&gt; &lt;tr&gt; &lt;td&gt; FAIL_COUNT &lt;/td&gt; &lt;td&gt; INTEGER ( 32 ) &lt;/td&gt; &lt;td&gt; &lt;/td&gt; &lt;/tr&gt; &lt;tr&gt; &lt;td&gt; UPDATE_TIME &lt;/td&gt; &lt;td&gt; TIMESTAMP ( 26 ,6 ) &lt;/td&gt; &lt;td&gt; &lt;/td&gt; &lt;/tr&gt; &lt;/table&gt; &lt;hr/&gt; &lt;p style=&quot;margin: 0px; margin-top: 4px; &quot;&gt;&lt;strong&gt;XXL任务日志报表&lt;/strong&gt;&lt;/p&gt;"
           style="verticalAlign=top;align=left;overflow=fill;fontSize=12;fontFamily=Helvetica;html=1;strokeColor=#003366;shadow=1;fillColor=#D4E1F5;fontColor=#003366" parent="1" vertex="1">
          <mxGeometry x="1290" y="100" width="300" height="200" as="geometry" />
        </mxCell>
        <mxCell id="a6279a0ca34c46e9b22a9ae89fedd61f" value="&lt;p style=&quot;margin: 0px; margin-top: 4px; text-align: center; &quot;&gt;&lt;strong&gt;XXL_JOB_LOGGLUE&lt;/strong&gt;&lt;/p&gt; &lt;hr/&gt; &lt;table style=&quot;width:100%;font-size:1em;&quot; cellpadding=&quot;2&quot; cellspacing=&quot;0&quot;&gt; &lt;tr&gt; &lt;td&gt; ID &lt;/td&gt; &lt;td&gt; BIGINT ( 64 ) &lt;/td&gt; &lt;td&gt; pk &lt;/td&gt; &lt;/tr&gt; &lt;tr&gt; &lt;td&gt; JOB_ID &lt;/td&gt; &lt;td&gt; INTEGER ( 32 ) &lt;/td&gt; &lt;td&gt; &lt;/td&gt; &lt;/tr&gt; &lt;tr&gt; &lt;td&gt; GLUE_TYPE &lt;/td&gt; &lt;td&gt; VARCHAR ( 50 ) &lt;/td&gt; &lt;td&gt; &lt;/td&gt; &lt;/tr&gt; &lt;tr&gt; &lt;td&gt; GLUE_SOURCE &lt;/td&gt; &lt;td&gt; VARCHAR ( 1000000000 ) &lt;/td&gt; &lt;td&gt; &lt;/td&gt; &lt;/tr&gt; &lt;tr&gt; &lt;td&gt; GLUE_REMARK &lt;/td&gt; &lt;td&gt; VARCHAR ( 128 ) &lt;/td&gt; &lt;td&gt; &lt;/td&gt; &lt;/tr&gt; &lt;tr&gt; &lt;td&gt; ADD_TIME &lt;/td&gt; &lt;td&gt; TIMESTAMP ( 26 ,6 ) &lt;/td&gt; &lt;td&gt; &lt;/td&gt; &lt;/tr&gt; &lt;tr&gt; &lt;td&gt; UPDATE_TIME &lt;/td&gt; &lt;td&gt; TIMESTAMP ( 26 ,6 ) &lt;/td&gt; &lt;td&gt; &lt;/td&gt; &lt;/tr&gt; &lt;/table&gt; &lt;hr/&gt; &lt;p style=&quot;margin: 0px; margin-top: 4px; &quot;&gt;&lt;strong&gt;XXL任务logglue&lt;/strong&gt;&lt;/p&gt;"
           style="verticalAlign=top;align=left;overflow=fill;fontSize=12;fontFamily=Helvetica;html=1;strokeColor=#003366;shadow=1;fillColor=#D4E1F5;fontColor=#003366" parent="1" vertex="1">
          <mxGeometry x="10" y="420" width="300" height="225" as="geometry" />
        </mxCell>
        <mxCell id="0691e55f282740b793430e001c3b2eaf" value="&lt;p style=&quot;margin: 0px; margin-top: 4px; text-align: center; &quot;&gt;&lt;strong&gt;XXL_JOB_REGISTRY&lt;/strong&gt;&lt;/p&gt; &lt;hr/&gt; &lt;table style=&quot;width:100%;font-size:1em;&quot; cellpadding=&quot;2&quot; cellspacing=&quot;0&quot;&gt; &lt;tr&gt; &lt;td&gt; ID &lt;/td&gt; &lt;td&gt; BIGINT ( 64 ) &lt;/td&gt; &lt;td&gt; pk &lt;/td&gt; &lt;/tr&gt; &lt;tr&gt; &lt;td&gt; REGISTRY_GROUP &lt;/td&gt; &lt;td&gt; VARCHAR ( 50 ) &lt;/td&gt; &lt;td&gt; &lt;/td&gt; &lt;/tr&gt; &lt;tr&gt; &lt;td&gt; REGISTRY_KEY &lt;/td&gt; &lt;td&gt; VARCHAR ( 255 ) &lt;/td&gt; &lt;td&gt; &lt;/td&gt; &lt;/tr&gt; &lt;tr&gt; &lt;td&gt; REGISTRY_VALUE &lt;/td&gt; &lt;td&gt; VARCHAR ( 255 ) &lt;/td&gt; &lt;td&gt; &lt;/td&gt; &lt;/tr&gt; &lt;tr&gt; &lt;td&gt; UPDATE_TIME &lt;/td&gt; &lt;td&gt; TIMESTAMP ( 26 ,6 ) &lt;/td&gt; &lt;td&gt; &lt;/td&gt; &lt;/tr&gt; &lt;/table&gt; &lt;hr/&gt; &lt;p style=&quot;margin: 0px; margin-top: 4px; &quot;&gt;&lt;strong&gt;XXL任务注册&lt;/strong&gt;&lt;/p&gt;"
           style="verticalAlign=top;align=left;overflow=fill;fontSize=12;fontFamily=Helvetica;html=1;strokeColor=#003366;shadow=1;fillColor=#D4E1F5;fontColor=#003366" parent="1" vertex="1">
          <mxGeometry x="330" y="420" width="300" height="175" as="geometry" />
        </mxCell>
        <mxCell id="dad2e334f9de43da8389a9138189c764" value="&lt;p style=&quot;margin: 0px; margin-top: 4px; text-align: center; &quot;&gt;&lt;strong&gt;XXL_JOB_USER&lt;/strong&gt;&lt;/p&gt; &lt;hr/&gt; &lt;table style=&quot;width:100%;font-size:1em;&quot; cellpadding=&quot;2&quot; cellspacing=&quot;0&quot;&gt; &lt;tr&gt; &lt;td&gt; ID &lt;/td&gt; &lt;td&gt; BIGINT ( 64 ) &lt;/td&gt; &lt;td&gt; pk &lt;/td&gt; &lt;/tr&gt; &lt;tr&gt; &lt;td&gt; USERNAME &lt;/td&gt; &lt;td&gt; VARCHAR ( 50 ) &lt;/td&gt; &lt;td&gt; &lt;/td&gt; &lt;/tr&gt; &lt;tr&gt; &lt;td&gt; PASSWORD &lt;/td&gt; &lt;td&gt; VARCHAR ( 300 ) &lt;/td&gt; &lt;td&gt; &lt;/td&gt; &lt;/tr&gt; &lt;tr&gt; &lt;td&gt; ROLE &lt;/td&gt; &lt;td&gt; INTEGER ( 32 ) &lt;/td&gt; &lt;td&gt; &lt;/td&gt; &lt;/tr&gt; &lt;tr&gt; &lt;td&gt; PERMISSION &lt;/td&gt; &lt;td&gt; VARCHAR ( 255 ) &lt;/td&gt; &lt;td&gt; &lt;/td&gt; &lt;/tr&gt; &lt;/table&gt; &lt;hr/&gt; &lt;p style=&quot;margin: 0px; margin-top: 4px; &quot;&gt;&lt;strong&gt;XXL任务用户&lt;/strong&gt;&lt;/p&gt;"
           style="verticalAlign=top;align=left;overflow=fill;fontSize=12;fontFamily=Helvetica;html=1;strokeColor=#003366;shadow=1;fillColor=#D4E1F5;fontColor=#003366" parent="1" vertex="1">
          <mxGeometry x="650" y="420" width="300" height="175" as="geometry" />
        </mxCell>

      </root>
    </mxGraphModel>
  </diagram>
</mxfile>
